# xmcd
#
# Track frame offsets:
# 150
# 45904
# 113617
# 176786
# 270795
#
# Disc length: 4506 seconds
#
# Revision: 0
# Processed by: cddbd v1.5.2PL0 Copyright (c) Steve Scherf et al.
# Submitted via: Audion 3.0.2 (http://www.panic.com/audion/)
#
DISCID=31119805
DTITLE=Steps Ahead Berlin 7.7.82 - Steps Ahead Berlin 7.7.82
DYEAR=1900
DGENRE=
TTITLE0=1
TTITLE1=2
TTITLE2=3
TTITLE3=4
TTITLE4=5
EXTD=
EXTT0=
EXTT1=
EXTT2=
EXTT3=
EXTT4=
PLAYORDER=
